# Alias OBJ Model File
# Exported from SketchUp, (c) 2000-2006 Google, Inc.
# File units = millimeters

mtllib breket_LED_STRIP.mtl

g Mesh1 Component_5_1 Component_6_1 Model

usemtl FrontColor
v 150.921 34 -231.587
vt 0.11811 1.77636e-015
vn -4.71845e-015 1 -0
v 150.921 34 -267.587
vt 0.11811 1.41732
v 148.921 34 -267.587
vt 0.0393701 1.41732
v 148.921 34 -232.587
vt 0.0393701 0.0393701
v 147.921 34 -232.587
vt 3.71531e-015 0.0393701
v 147.921 34 -231.587
vt 3.71531e-015 0
f 1/1/1 2/2/1 3/3/1 4/4/1 5/5/1 6/6/1 

v 150.921 14 -267.587
vt 1.41732 -3.35252e-016
vn 1 4.71845e-015 -0
vt 1.41732 0.787402
vt 1.77636e-015 0.787402
v 150.921 14 -231.587
vt 1.77636e-015 -3.35252e-016
f 7/7/2 2/8/2 1/9/2 8/10/2 

vt -0.11811 0.787402
vn 0 0 -1
vt -0.11811 2.22045e-016
v 148.921 14 -267.587
vt -0.0393701 1.11022e-016
vt -0.0393701 0.787402
f 2/11/3 7/12/3 9/13/3 3/14/3 

vt -0.11811 1.41732
vn 4.71845e-015 -1 -0
vt -0.11811 1.77636e-015
v 147.921 14 -231.587
vt -3.55271e-015 0
v 147.921 14 -232.587
vt -1.77636e-015 0.0393701
v 148.921 14 -232.587
vt -0.0393701 0.0393701
vt -0.0393701 1.41732
f 7/15/4 8/16/4 10/17/4 11/18/4 12/19/4 9/20/4 

vt 0.11811 2.22045e-016
vn 0 0 1
vt 0.11811 0.787402
vt 0 0.787402
vt 3.55271e-015 0
f 8/21/5 1/22/5 6/23/5 10/24/5 

vn -1 -3.38396e-015 2.25597e-014
vt -0.0393701 0.787402
vt -0.0393701 -9.01668e-030
vt 8.01483e-029 -1.20222e-029
f 6/23/6 5/25/6 11/26/6 10/27/6 

vt -0.0393701 0.787402
vn -2.25597e-014 -5.08942e-029 -1
vt -0.0393701 1.11022e-016
vt -2.66454e-015 2.00371e-030
vt -8.88178e-016 0.787402
f 4/28/7 12/29/7 11/30/7 5/31/7 

vt -1.41732 -2.22045e-017
vn -1 -3.38396e-015 -6.44564e-016
vt -0.0393701 -2.22045e-017
vt -0.0393701 0.787402
vt -1.41732 0.787402
f 9/32/8 12/33/8 4/34/8 3/35/8 

g Mesh2 Component_1_1 Component_6_1 Model

v 138.921 34 -232.587
vt 0 0
v 138.921 34 -267.587
vt 1.37795 0
v 136.921 34 -267.587
vt 1.37795 0.0787402
v 136.921 34 -232.587
vt 0 0.0787402
f 13/36/1 14/37/1 15/38/1 16/39/1 

v 138.921 14 -267.587
vt 0 1.37795
vt -0.787402 1.37795
vt -0.787402 0
v 138.921 14 -232.587
f 17/40/2 14/41/2 13/42/2 18/36/2 

v 136.921 14 -267.587
vt -2.22045e-016 0.0787402
vt -0.787402 0.0787402
f 14/42/3 17/36/3 19/43/3 15/44/3 

vt -1.37795 0
v 136.921 14 -232.587
vt -1.37795 0.0787402
f 17/45/4 18/36/4 20/39/4 19/46/4 

vn -0 0 1
vt 0.787402 0
vt 0.787402 0.0787402
vt 2.22045e-016 0.0787402
f 18/36/9 13/47/9 16/48/9 20/49/9 

vt 0.787402 1.37795
vn -1 -4.71845e-015 -0
vt 2.22045e-016 1.37795
vt 2.22045e-016 0
f 15/50/10 19/51/10 20/52/10 16/47/10 

g Mesh3 Component_2_1 Component_6_1 Model

v 155.921 34 -267.587
vt -0.787402 0
v 155.921 14 -267.587
v 155.921 14 -271.587
vt 0 0.15748
v 155.921 34 -271.587
vt -0.787402 0.15748
f 21/53/2 22/36/2 23/54/2 24/55/2 

v 153.421 34 -249.587
vt 0.787402 0.715464
vn 0.990492 2.23e-015 0.137568
v 153.421 14 -249.587
vt 1.24767e-014 0.715464
vt 0.787402 -1.38534e-014
f 25/56/11 26/57/11 22/36/11 21/58/11 

vt 0.787402 0.0984252
v 150.921 34 -249.587
vt 0.787402 0.19685
v 150.921 14 -249.587
vt -1.11022e-016 0.19685
vt -1.11022e-016 0.0984252
f 25/59/9 27/60/9 28/61/9 26/62/9 

v 131.921 34 -271.587
vt 0.15748 0.944882
vn -4.7351e-015 1 -2.37495e-017
v 131.921 34 -262.587
vt -0.19685 0.944882
v 136.921 34 -262.587
vt -0.19685 0.748031
v 136.921 34 -267.587
vt -1.87004e-017 0.748031
vt -1.87004e-017 0.19685
v 150.921 34 -262.481
vt -0.201017 0.19685
vt -0.708661 0.19685
vt -0.708661 0.0984252
vt -1.87004e-017 -1.3114e-017
vt 0.15748 -1.3114e-017
f 29/63/12 30/64/12 31/65/12 32/66/12 2/67/12 33/68/12 27/69/12 25/70/12 21/71/12 24/72/12 

v 131.921 14 -262.587
vt -1.9512e-016 -0.19685
vn -1 -4.51195e-015 -0
vt 0.787402 -0.19685
vt 0.787402 0.15748
v 131.921 14 -271.587
vt -1.9512e-016 0.15748
f 34/73/13 30/74/13 29/75/13 35/76/13 

vt 0.787402 0.944882
vt 0 0.944882
v 136.921 14 -262.587
vt 0 0.748031
vt 0.787402 0.748031
f 30/77/9 34/78/9 36/79/9 31/80/9 

v 136.921 14 -267.587
vn 4.70539e-015 -1 -1.06465e-016
vt 0.19685 0.748031
vt 0.19685 0.944882
vt -0.15748 0.944882
vt -0.15748 -2.18871e-034
vt 0.708661 0.0984252
vt 0.708661 0.19685
vt 0 0.19685
f 37/79/14 36/81/14 34/82/14 35/83/14 23/84/14 22/36/14 26/85/14 28/86/14 7/87/14 

vt 1.5447e-016 0
vn 1 4.51195e-015 -0
vt -0.787402 0
vt -0.787402 -0.19685
vt 1.5447e-016 -0.19685
f 37/88/15 32/89/15 31/90/15 36/91/15 

f 2/60/9 32/80/9 37/79/9 7/87/9 

vt -4.53683e-016 -4.78502e-016
vn -1 -2.41374e-015 -2.43079e-015
vt -5.64705e-016 -0.708661
vt 0.787402 -0.708661
vt 0.787402 -0.201017
vt 0.787402 -4.78502e-016
f 7/92/16 28/93/16 27/94/16 33/95/16 2/96/16 

vt -0.787402 0.944882
f 29/97/3 24/53/3 23/36/3 35/78/3 

g Mesh4 Component_5_2 Component_6_2 Model

v 183.569 34 -231.587
v 183.569 34 -267.587
v 181.569 34 -267.587
v 181.569 34 -232.587
v 180.569 34 -232.587
v 180.569 34 -231.587
f 38/1/1 39/2/1 40/3/1 41/4/1 42/5/1 43/6/1 

v 183.569 14 -267.587
v 183.569 14 -231.587
f 44/7/2 39/8/2 38/9/2 45/10/2 

v 181.569 14 -267.587
f 39/11/3 44/12/3 46/13/3 40/14/3 

v 180.569 14 -231.587
v 180.569 14 -232.587
v 181.569 14 -232.587
f 44/15/4 45/16/4 47/17/4 48/18/4 49/19/4 46/20/4 

f 45/21/5 38/22/5 43/23/5 47/24/5 

f 43/23/6 42/25/6 48/26/6 47/27/6 

f 41/28/7 49/29/7 48/30/7 42/31/7 

f 46/32/8 49/33/8 41/34/8 40/35/8 

g Mesh5 Component_1_2 Component_6_2 Model

v 171.569 34 -232.587
v 171.569 34 -267.587
v 169.569 34 -267.587
v 169.569 34 -232.587
f 50/36/1 51/37/1 52/38/1 53/39/1 

v 171.569 14 -267.587
v 171.569 14 -232.587
f 54/40/2 51/41/2 50/42/2 55/36/2 

v 169.569 14 -267.587
f 51/42/3 54/36/3 56/43/3 52/44/3 

v 169.569 14 -232.587
f 54/45/4 55/36/4 57/39/4 56/46/4 

f 55/36/9 50/47/9 53/48/9 57/49/9 

f 52/50/10 56/51/10 57/52/10 53/47/10 

g Mesh6 Component_2_2 Component_6_2 Model

v 188.569 34 -267.587
v 188.569 14 -267.587
v 188.569 14 -271.587
v 188.569 34 -271.587
f 58/53/2 59/36/2 60/54/2 61/55/2 

v 186.069 34 -249.587
v 186.069 14 -249.587
f 62/56/11 63/57/11 59/36/11 58/58/11 

v 183.569 34 -249.587
v 183.569 14 -249.587
f 62/59/9 64/60/9 65/61/9 63/62/9 

v 164.569 34 -271.587
v 164.569 34 -262.587
v 169.569 34 -262.587
v 169.569 34 -267.587
v 183.569 34 -262.481
f 66/63/12 67/64/12 68/65/12 69/66/12 39/67/12 70/68/12 64/69/12 62/70/12 58/71/12 61/72/12 

v 164.569 14 -262.587
v 164.569 14 -271.587
f 71/73/13 67/74/13 66/75/13 72/76/13 

v 169.569 14 -262.587
f 67/77/9 71/78/9 73/79/9 68/80/9 

v 169.569 14 -267.587
f 74/79/14 73/81/14 71/82/14 72/83/14 60/84/14 59/36/14 63/85/14 65/86/14 44/87/14 

f 74/88/15 69/89/15 68/90/15 73/91/15 

f 39/60/9 69/80/9 74/79/9 44/87/9 

f 44/92/16 65/93/16 64/94/16 70/95/16 39/96/16 

f 66/97/3 61/53/3 60/36/3 72/78/3 

